<svg xmlns="http://www.w3.org/2000/svg" version="1.1" xmlns:xlink="http://www.w3.org/1999/xlink" xmlns:svgjs="http://svgjs.dev/svgjs" width="1500" height="1500" viewBox="0 0 1500 1500"><rect width="1500" height="1500" fill="#000000"></rect><g transform="matrix(0.6666666666666666,0,0,0.6666666666666666,249.39393939393938,438.58569500674764)"><svg viewBox="0 0 396 247" data-background-color="#97d5ee" preserveAspectRatio="xMidYMid meet" height="935" width="1500" xmlns="http://www.w3.org/2000/svg" xmlns:xlink="http://www.w3.org/1999/xlink"><g id="tight-bounds" transform="matrix(1,0,0,1,0.2400000000000091,-0.09999999999999432)"><svg viewBox="0 0 395.52 247.2" height="247.2" width="395.52"><g><svg></svg></g><g><svg viewBox="0 0 395.52 247.2" height="247.2" width="395.52"><g transform="matrix(1,0,0,1,75.54432,48.88476212602917)"><svg viewBox="0 0 244.43135999999998 149.43047574794164" height="149.43047574794164" width="244.43135999999998"><g><svg viewBox="0 0 245.65351679999995 150.17762812668133" height="149.43047574794164" width="244.43135999999998"><g><rect width="245.65351679999995" height="4.599742400259955" x="0" y="82.53102253302032" fill="#ffffff" opacity="1" stroke-width="0" stroke="transparent" fill-opacity="1" class="rect-yte-0" data-fill-palette-color="secondary" rx="1%" id="yte-0" data-palette-color="#db3e25"></rect></g><g transform="matrix(1,0,0,1,0.6110783999999825,99.17197540516497)"><svg viewBox="0 0 244.43135999999998 51.00565272151636" height="51.00565272151636" width="244.43135999999998"><g id="textblocktransform"><svg viewBox="0 0 244.43135999999998 51.00565272151636" height="51.00565272151636" width="244.43135999999998" id="textblock"><g><svg viewBox="0 0 244.43135999999998 51.00565272151636" height="51.00565272151636" width="244.43135999999998"><g transform="matrix(1,0,0,1,0,0)"><svg width="244.43135999999998" viewBox="1.3 -35.55 230.24702335487999 48.05" height="51.00565272151636" data-palette-color="#db3e25"><path d="M8.8-34.05L8.8-35 25.05-35 25.05-34.05 22.3-34.05 22.3-12.45Q22.3-5.7 19.25-2.63 16.2 0.45 10.1 0.45L10.1 0.45Q6.05 0.45 3.68-1.1 1.3-2.65 1.3-5.45L1.3-5.45Q1.3-7.6 2.5-8.83 3.7-10.05 5.78-10.05 7.85-10.05 8.88-9 9.9-7.95 9.9-6.48 9.9-5 9.35-3.5L9.35-3.5 7.4-3.5Q6.95-2.75 6.95-2.08 6.95-1.4 7.63-0.93 8.3-0.45 9.4-0.45L9.4-0.45Q11.4-0.45 11.98-2.02 12.55-3.6 12.55-8.85L12.55-8.85 12.55-34.05 8.8-34.05ZM41.8-9.85L41.8-9.85 41.8-14.1Q41.8-18.95 41.27-21.18 40.75-23.4 38.85-23.4L38.85-23.4Q37.75-23.4 37.07-22.78 36.4-22.15 36.1-20.7L36.1-20.7Q35.65-18.45 35.65-13.85L35.65-13.85 35.65-9.95Q35.65-4.5 35.97-3.4 36.3-2.3 36.65-1.6L36.65-1.6Q37.2-0.4 38.8-0.4L38.8-0.4Q40.75-0.4 41.35-2.65L41.35-2.65Q41.8-4.25 41.8-9.85ZM38.7 0.5Q32.45 0.5 29.25-2.7 26.05-5.9 26.05-11.88 26.05-17.85 29.47-21.08 32.9-24.3 39.1-24.3 45.3-24.3 48.35-21.33 51.4-18.35 51.4-12.25L51.4-12.25Q51.4 0.5 38.7 0.5L38.7 0.5ZM52.9-22.9L52.9-23.8 64.95-23.8 64.95-19.2Q65.75-21.5 67.4-22.9 69.05-24.3 72.4-24.3L72.4-24.3Q80.15-24.3 80.15-15.95L80.15-15.95 80.15-0.9 82.95-0.9 82.95 0 68.8 0 68.8-0.9 70.84-0.9 70.84-17.15Q70.84-20.15 70.45-21.03 70.05-21.9 69-21.9L69-21.9Q67.4-21.9 66.17-19.8 64.95-17.7 64.95-14.7L64.95-14.7 64.95-0.9 67.09-0.9 67.09 0 52.9 0 52.9-0.9 55.65-0.9 55.65-22.9 52.9-22.9ZM108.84 11.3L108.84 11.3Q111.29 11.3 112.62 8.95 113.94 6.6 113.94 3.15 113.94-0.3 111.29-3.85L111.29-3.85Q107.49 0.5 100.84 0.5 94.19 0.5 90.27-1.75 86.34-4 86.34-8.85L86.34-8.85Q86.34-12.2 88.14-14.25 89.94-16.3 94.19-17.25L94.19-17.25Q89.79-21.25 89.79-25.98 89.79-30.7 93.12-33.13 96.44-35.55 101.39-35.55 106.34-35.55 108.82-33.75 111.29-31.95 111.29-28.9L111.29-28.9Q111.29-23.6 103.24-20.8L103.24-20.8Q104.24-20.15 106.89-18.5L106.89-18.5Q112.44-14.9 114.74-12.7L114.74-12.7Q115.49-16.25 115.59-20L115.59-20 111.64-20 111.64-21 120.34-21 120.34-20 116.84-20Q116.74-15.3 115.89-11.55L115.89-11.55Q118.04-9.15 119.14-6.95 120.24-4.75 120.24-1.4L120.24-1.4Q120.24 4 116.44 8.25 112.64 12.5 107.79 12.5L107.79 12.5Q104.54 12.5 102.74 11.15 100.94 9.8 100.94 7.7 100.94 5.6 102.12 4.42 103.29 3.25 105.09 3.25L105.09 3.25Q109.09 3.25 109.09 6.85L109.09 6.85Q109.09 7.6 108.79 8.65L108.79 8.65 107.04 8.65Q106.14 11.3 108.84 11.3ZM102.04-0.8L102.04-0.8Q107.34-0.8 110.44-4.9L110.44-4.9Q108.14-7.3 103.99-10.1L103.99-10.1Q96.84-14.8 94.89-16.5L94.89-16.5Q94.14-14.9 94.14-10 94.14-5.1 96.09-2.95 98.04-0.8 102.04-0.8ZM101.14-34.5Q99.24-34.5 97.89-33.33 96.54-32.15 96.54-29.6 96.54-27.05 97.74-25.4 98.94-23.75 102.34-21.4L102.34-21.4Q104.44-22.5 104.97-24.05 105.49-25.6 105.49-28.6L105.49-28.6Q105.49-34.5 101.14-34.5L101.14-34.5ZM132.99-34.05L132.99-35 149.24-35 149.24-34.05 146.49-34.05 146.49-12.45Q146.49-5.7 143.44-2.63 140.39 0.45 134.29 0.45L134.29 0.45Q130.24 0.45 127.86-1.1 125.49-2.65 125.49-5.45L125.49-5.45Q125.49-7.6 126.69-8.83 127.89-10.05 129.97-10.05 132.04-10.05 133.06-9 134.09-7.95 134.09-6.48 134.09-5 133.54-3.5L133.54-3.5 131.59-3.5Q131.14-2.75 131.14-2.08 131.14-1.4 131.81-0.93 132.49-0.45 133.59-0.45L133.59-0.45Q135.59-0.45 136.16-2.02 136.74-3.6 136.74-8.85L136.74-8.85 136.74-34.05 132.99-34.05ZM161.29-11.75L161.29-11.75 162.74-11.75 162.74-15.6Q162.74-20.35 162.21-21.98 161.69-23.6 160.19-23.6L160.19-23.6Q159.29-23.6 158.56-23.13 157.84-22.65 157.84-21.83 157.84-21 158.14-20.15L158.14-20.15 159.39-20.15Q159.79-19.1 159.79-17.63 159.79-16.15 158.54-15.08 157.29-14 155.39-14L155.39-14Q151.09-14 151.09-18.15L151.09-18.15Q151.09-24.3 161.54-24.3L161.54-24.3Q167.49-24.3 169.76-22.28 172.04-20.25 172.04-14.85L172.04-14.85 172.04-4.7Q172.04-2.1 173.49-2.1L173.49-2.1Q175.19-2.1 175.49-7.25L175.49-7.25 176.24-7.2Q176.04-2.8 174.59-1.15 173.14 0.5 169.84 0.5L169.84 0.5Q163.84 0.5 162.94-3.2L162.94-3.2Q162.29-1.3 160.99-0.4 159.69 0.5 157.19 0.5L157.19 0.5Q149.79 0.5 149.79-5.55L149.79-5.55Q149.79-9.1 152.61-10.43 155.44-11.75 161.29-11.75ZM159.29-5.6Q159.29-3 159.56-2.25 159.84-1.5 160.61-1.5 161.39-1.5 162.06-2.78 162.74-4.05 162.74-6.3L162.74-6.3 162.74-10.95 162.39-10.95Q159.29-10.95 159.29-6.4L159.29-6.4 159.29-5.6ZM176.84-22.9L176.84-23.8 188.89-23.8 188.89-19.2Q189.69-21.5 191.34-22.9 192.99-24.3 196.34-24.3L196.34-24.3Q204.09-24.3 204.09-15.95L204.09-15.95 204.09-0.9 206.89-0.9 206.89 0 192.74 0 192.74-0.9 194.79-0.9 194.79-17.15Q194.79-20.15 194.39-21.03 193.99-21.9 192.94-21.9L192.94-21.9Q191.34-21.9 190.11-19.8 188.89-17.7 188.89-14.7L188.89-14.7 188.89-0.9 191.04-0.9 191.04 0 176.84 0 176.84-0.9 179.59-0.9 179.59-22.9 176.84-22.9ZM220.68 0.5Q214.23 0.5 211.01-2.83 207.78-6.15 207.78-12.08 207.78-18 211.41-21.15 215.03-24.3 220.63-24.3L220.63-24.3Q231.98-24.3 231.53-12.9L231.53-12.9 217.43-12.9 217.43-10.95Q217.43-6.05 218.68-3.55 219.93-1.05 223.03-1.05L223.03-1.05Q228.83-1.05 230.63-7.25L230.63-7.25 231.53-7.1Q230.58-3.5 228.11-1.5 225.63 0.5 220.68 0.5L220.68 0.5ZM217.48-16.35L217.48-13.9 222.63-13.9 222.63-16.35Q222.63-20.4 222.16-21.88 221.68-23.35 220.26-23.35 218.83-23.35 218.16-21.78 217.48-20.2 217.48-16.35L217.48-16.35Z" opacity="1" transform="matrix(1,0,0,1,0,0)" fill="#ffffff" class="wordmark-text-0" data-fill-palette-color="primary" id="text-0"></path></svg></g></svg></g></svg></g></svg></g><g transform="matrix(1,0,0,1,79.79762664504221,0)"><svg viewBox="0 0 86.05826350991553 70.48981206113562" height="70.48981206113562" width="86.05826350991553"><g><svg xmlns="http://www.w3.org/2000/svg" xmlns:xlink="http://www.w3.org/1999/xlink" version="1.1" x="8" y="0" viewBox="5.275 4.999999067724894 89.44900825863249 90.0000009322751" enable-background="new 0 0 100 100" xml:space="preserve" height="70.48981206113562" width="70.05826350991553" class="icon-icon-0" data-fill-palette-color="accent" id="icon-0"><g fill="#0002fe" data-fill-palette-color="accent"><path d="M34.909 35.183C18.569 35.183 5.275 48.477 5.275 64.817 5.275 81.158 18.569 94.451 34.909 94.451S64.543 81.158 64.543 64.817C64.543 48.477 51.249 35.183 34.909 35.183M34.909 77.531C27.898 77.531 22.194 71.828 22.194 64.817 22.194 57.804 27.898 52.1 34.909 52.1S47.626 57.804 47.626 64.817C47.625 71.828 41.92 77.531 34.909 77.531" fill="#ffffff" data-fill-palette-color="accent"></path><circle cx="34.909" cy="64.816" r="6.5" fill="#ffffff" data-fill-palette-color="accent"></circle></g><g fill="#0002fe" data-fill-palette-color="accent"><path fill="#ffffff" d="M63.665 36.853C62.327 35.475 60.551 34.717 58.665 34.717A6.99 6.99 0 0 0 52.051 39.322 31 31 0 0 1 60.87 48.404 6.94 6.94 0 0 0 65.405 43.609 6.95 6.95 0 0 0 63.665 36.853" data-fill-palette-color="accent"></path><path fill="#ffffff" d="M94.177 5H46.763C33.389 5 22.507 15.881 22.507 29.256V36.708A30.55 30.55 0 0 1 40.645 34.63L39.454 33.587A0.41 0.41 0 0 1 39.365 33.079 31 31 0 0 1 42.267 28.725 31 31 0 0 1 45.869 24.925 0.41 0.41 0 0 1 46.385 24.9L50.043 27.557A16.6 16.6 0 0 1 52.855 26.204L53.06 21.688A0.41 0.41 0 0 1 53.401 21.301 30.6 30.6 0 0 1 63.832 21.301C64.022 21.334 64.164 21.495 64.173 21.688L64.378 26.204C65.357 26.565 66.28 27.011 67.19 27.557L70.848 24.9A0.414 0.414 0 0 1 71.364 24.925 31.3 31.3 0 0 1 74.966 28.725 31 31 0 0 1 77.868 33.078 0.41 0.41 0 0 1 77.778 33.587L74.374 36.568C74.704 37.566 74.932 38.566 75.068 39.608L79.427 40.815A0.41 0.41 0 0 1 79.727 41.234 31.4 31.4 0 0 1 79.004 46.415 31 31 0 0 1 77.407 51.4 0.415 0.415 0 0 1 76.952 51.647L72.502 50.842A16 16 0 0 1 70.557 53.28L72.333 57.439A0.41 0.41 0 0 1 72.193 57.936 31 31 0 0 1 67.689 60.602C67.015 60.926 66.271 61.238 65.463 61.548A31 31 0 0 1 65.639 64.817C65.639 79.795 54.867 92.296 40.664 95H94.175A0.55 0.55 0 0 0 94.724 94.451V5.549A0.546 0.546 0 0 0 94.177 5" data-fill-palette-color="accent"></path></g></svg></g></svg></g><g><rect width="32.50015848504223" height="4.599742400259955" y="64.89006966087567" x="165.85589015495776" fill="#ffffff" data-fill-palette-color="secondary"></rect><rect width="32.50015848504223" height="4.599742400259955" y="64.89006966087567" x="47.29746815999998" fill="#ffffff" data-fill-palette-color="secondary"></rect></g></svg></g></svg></g><g><path d="M111.618 36.903A122.216 122.216 0 0 1 283.902 36.903L279.325 36.903A117.639 117.639 0 0 0 116.195 36.903L111.618 36.903M111.618 210.297A122.216 122.216 0 0 0 283.902 210.297L279.325 210.297A117.639 117.639 0 0 1 116.195 210.297L111.618 210.297" fill="#ffffff" stroke="transparent" data-fill-palette-color="tertiary"></path></g></svg></g><defs></defs></svg><rect width="395.52" height="247.2" fill="none" stroke="none" visibility="hidden"></rect></g></svg></g></svg>